<svg  height="300" viewBox="70 70 240 240" width="300" xmlns="http://www.w3.org/2000/svg">
<path fill="#6633cc" d="M0 0L0 400L400 400L400 0L0 0z"/>
<path fill="white" d="M232 143C227.608 142.445 221.579 140.728 217.325 142.603C208.703 146.403 200.919 163.528 195.37 171C193.44 173.6 190.93 178.57 187.7 179.694C178.699 182.827 167.911 164.022 158.148 165.451C153.272 166.164 157.327 175.552 157 179C151.714 176.343 137.142 175.261 143.18 185.699C145.374 189.493 150.41 191.61 154 193.811C159.299 197.059 164.74 201.553 171 202.671C182.645 204.749 195.493 196.488 207 195.643C213.795 195.144 220.171 206.041 226.907 202.917C230.857 201.085 233.607 195.365 236.127 192C243.09 182.701 249.91 173.3 256.873 164C259.211 160.878 265.414 154.685 264.183 150.317C263.204 146.844 255.811 147.121 253 147L265 125C258.879 124.226 250.039 121.059 244.039 122.357C237.003 123.879 230.233 136.488 232 143z"/>
<path fill="white" d="M155 199C155.271 204.206 158.655 208.039 159.154 213C160.008 221.503 154.625 235.359 170 235.264C174.649 235.235 178.146 229.5 182 227.434C186.137 225.216 191.459 226 196 226L183 215.6L155 199z"/>
<path fill="white" d="M135 278C145.159 275.149 157.473 260.314 164.66 252.576C167.371 249.657 169.693 245.232 168.667 241.105C166.918 234.067 153.7 229.133 148.394 234.394C143.032 239.711 141.664 250.917 139.873 258C138.183 264.686 135.887 271.135 135 278z"/>
</svg>
